<svg xmlns="http://www.w3.org/2000/svg">
  <symbol id="site-mark" viewBox="0 0 32 32"><path d="M9 5.5 16 2l7 3.5v7L16 16l-7-3.5v-7Zm7 10.5 5.5 3.2v6.3L16 29l-5.5-3.5v-6.3L16 16Z" fill="none" stroke="currentColor" stroke-width="1.8" stroke-linejoin="round"/><circle cx="9" cy="5.5" r="2" fill="currentColor"/><circle cx="23" cy="12.5" r="2" fill="currentColor"/><circle cx="10.5" cy="25.5" r="2" fill="currentColor"/><circle cx="21.5" cy="25.5" r="2" fill="currentColor"/></symbol>
  <symbol id="network" viewBox="0 0 600 420"><g fill="none" stroke="currentColor" stroke-width="1.4" opacity=".55"><path d="m36 300 68-88 82 42 62-126 94 55 69-103 95 71 59-86"/><path d="m78 342 26-130 112 128 32-212 94 55 23 145 100-177 72 144"/><path d="m36 300 104 44 76-4 90 44 59-56 100 35 100-68"/><path d="M104 212 58 120l128-34 62 42 58-74 105 26 54 71 100-86"/><path d="m140 344 46-258 120 298 36-201 123 180"/></g><g fill="currentColor"><circle cx="36" cy="300" r="7"/><circle cx="58" cy="120" r="5"/><circle cx="78" cy="342" r="5"/><circle cx="104" cy="212" r="8"/><circle cx="140" cy="344" r="7"/><circle cx="186" cy="86" r="6"/><circle cx="186" cy="254" r="5"/><circle cx="216" cy="340" r="6"/><circle cx="248" cy="128" r="8"/><circle cx="306" cy="54" r="6"/><circle cx="306" cy="384" r="7"/><circle cx="342" cy="183" r="6"/><circle cx="365" cy="328" r="8"/><circle cx="411" cy="80" r="6"/><circle cx="465" cy="151" r="7"/><circle cx="465" cy="363" r="6"/><circle cx="506" cy="222" r="8"/><circle cx="537" cy="295" r="6"/><circle cx="565" cy="65" r="7"/></g></symbol>
  <symbol id="docking" viewBox="0 0 32 32"><path d="M4.5 8.5c5-5 12-5.6 17.3-1.7-2.8 1.1-4.8 3.2-5.5 6.1-.8 3.4.2 6.5 2.9 9.2-5.8 1.7-11.8-.7-14.5-5.8" fill="none" stroke="currentColor" stroke-width="1.8" stroke-linecap="round"/><path d="m20.5 11.5 4-2.2 3.8 2.4-.2 4.5-4 2.2-3.8-2.4.2-4.5Z" fill="none" stroke="currentColor" stroke-width="1.6"/><circle cx="20.5" cy="11.5" r="1.8" fill="currentColor"/><circle cx="28.1" cy="16.2" r="1.8" fill="currentColor"/></symbol>
  <symbol id="generation" viewBox="0 0 32 32"><path d="m5 9 5-3 5 3v6l-5 3-5-3V9Zm12 8 5-3 5 3v6l-5 3-5-3v-6Z" fill="none" stroke="currentColor" stroke-width="1.7"/><path d="m14 14 4 3M22 8v5m-2.5-2.5h5" fill="none" stroke="currentColor" stroke-width="1.8" stroke-linecap="round"/><circle cx="5" cy="9" r="1.6" fill="currentColor"/><circle cx="15" cy="15" r="1.6" fill="currentColor"/><circle cx="27" cy="23" r="1.6" fill="currentColor"/></symbol>
  <symbol id="flask" viewBox="0 0 32 32"><path d="M11 3h10M13 3v8L6.3 23.2A3.8 3.8 0 0 0 9.6 29h12.8a3.8 3.8 0 0 0 3.3-5.8L19 11V3" fill="none" stroke="currentColor" stroke-width="1.8" stroke-linecap="round" stroke-linejoin="round"/><path d="M9.6 21h12.8M12 24h.1M17 25.5h.1M21 23h.1" fill="none" stroke="currentColor" stroke-width="1.8" stroke-linecap="round"/></symbol>
  <symbol id="rag" viewBox="0 0 32 32"><path d="M6 4h13l6 6v18H6V4Z" fill="none" stroke="currentColor" stroke-width="1.7" stroke-linejoin="round"/><path d="M19 4v6h6M10 14h7M10 18h5" fill="none" stroke="currentColor" stroke-width="1.7" stroke-linecap="round"/><path d="m17 22 4-2.3 4 2.3v4.5L21 29l-4-2.5V22Z" fill="none" stroke="currentColor" stroke-width="1.5"/><circle cx="17" cy="22" r="1.5" fill="currentColor"/><circle cx="25" cy="26.5" r="1.5" fill="currentColor"/></symbol>
  <symbol id="spectrum" viewBox="0 0 32 32"><path d="M4 5v22h24" fill="none" stroke="currentColor" stroke-width="1.8" stroke-linecap="round"/><path d="M8 24v-5m4 5V9m4 15v-8m4 8V5m4 19v-12" fill="none" stroke="currentColor" stroke-width="2" stroke-linecap="round"/></symbol>
  <symbol id="benchmark" viewBox="0 0 32 32"><path d="M9 5h14a3 3 0 0 1 3 3v19H6V8a3 3 0 0 1 3-3Z" fill="none" stroke="currentColor" stroke-width="1.7"/><path d="M12 3h8v5h-8V3Zm-2 11 2.5 2.5L17 12m-7 10 2.5 2.5L17 20m3-5h3m-3 8h3" fill="none" stroke="currentColor" stroke-width="1.7" stroke-linecap="round" stroke-linejoin="round"/></symbol>
  <symbol id="molecule" viewBox="0 0 32 32"><path d="m7 9 8-4 7 5-1 9-8 4-7-5 1-9Zm15 1 5-3m-6 12 5 4m-13 0-1 6" fill="none" stroke="currentColor" stroke-width="1.7" stroke-linecap="round"/><circle cx="7" cy="9" r="2" fill="currentColor"/><circle cx="22" cy="10" r="2" fill="currentColor"/><circle cx="21" cy="19" r="2" fill="currentColor"/><circle cx="13" cy="23" r="2" fill="currentColor"/><circle cx="27" cy="7" r="2" fill="currentColor"/><circle cx="26" cy="23" r="2" fill="currentColor"/></symbol>
  <symbol id="torch" viewBox="0 0 32 32"><path d="M14 29h6l-1-14h-4l-1 14Z" fill="none" stroke="currentColor" stroke-width="1.7" stroke-linejoin="round"/><path d="M17 15c-5-2-7-6-4-11 1 3 3 4 5 5 2-2 3-4 3-7 5 5 5 11-4 13Z" fill="none" stroke="currentColor" stroke-width="1.7" stroke-linejoin="round"/></symbol>
  <symbol id="serpents" viewBox="0 0 32 32"><path d="M6 12c0-5 3-8 8-8h5v7h-8c-3 0-5 2-5 5v2m20 2c0 5-3 8-8 8h-5v-7h8c3 0 5-2 5-5v-2" fill="none" stroke="currentColor" stroke-width="1.9" stroke-linecap="round"/><circle cx="16.5" cy="7.5" r="1" fill="currentColor"/><circle cx="15.5" cy="24.5" r="1" fill="currentColor"/></symbol>
  <symbol id="compute" viewBox="0 0 32 32"><rect x="5" y="4" width="22" height="7" rx="2" fill="none" stroke="currentColor" stroke-width="1.7"/><rect x="5" y="13" width="22" height="7" rx="2" fill="none" stroke="currentColor" stroke-width="1.7"/><rect x="5" y="22" width="22" height="6" rx="2" fill="none" stroke="currentColor" stroke-width="1.7"/><circle cx="9" cy="7.5" r="1.2" fill="currentColor"/><circle cx="9" cy="16.5" r="1.2" fill="currentColor"/><circle cx="9" cy="25" r="1.2" fill="currentColor"/><path d="M14 7.5h9M14 16.5h9M14 25h9" stroke="currentColor" stroke-width="1.5" stroke-linecap="round"/></symbol>
  <symbol id="work" viewBox="0 0 32 32"><path d="M4 10h24v17H4V10Zm7 0V6h10v4M4 15h24M13 14.5h6v4h-6v-4Z" fill="none" stroke="currentColor" stroke-width="1.8" stroke-linejoin="round"/></symbol>
  <symbol id="projects" viewBox="0 0 32 32"><rect x="4" y="5" width="10" height="9" rx="2" fill="none" stroke="currentColor" stroke-width="1.7"/><rect x="18" y="5" width="10" height="9" rx="2" fill="none" stroke="currentColor" stroke-width="1.7"/><rect x="4" y="18" width="10" height="9" rx="2" fill="none" stroke="currentColor" stroke-width="1.7"/><path d="M19 22h8m-4-4v8" stroke="currentColor" stroke-width="1.8" stroke-linecap="round"/></symbol>
  <symbol id="education" viewBox="0 0 32 32"><path d="M3 11 16 5l13 6-13 6-13-6Zm5 3v7c4 4 12 4 16 0v-7m4-2v9" fill="none" stroke="currentColor" stroke-width="1.8" stroke-linecap="round" stroke-linejoin="round"/></symbol>
  <symbol id="profiles" viewBox="0 0 32 32"><circle cx="16" cy="10" r="5" fill="none" stroke="currentColor" stroke-width="1.8"/><circle cx="6.5" cy="15" r="3" fill="none" stroke="currentColor" stroke-width="1.6"/><circle cx="25.5" cy="15" r="3" fill="none" stroke="currentColor" stroke-width="1.6"/><path d="M7 27c.8-5 4-8 9-8s8.2 3 9 8M2 25c.5-3 2-5 4.5-5 1.2 0 2.2.4 3.1 1M30 25c-.5-3-2-5-4.5-5-1.2 0-2.2.4-3.1 1" fill="none" stroke="currentColor" stroke-width="1.8" stroke-linecap="round"/></symbol>
  <symbol id="university" viewBox="0 0 32 32"><path d="m3 10 13-6 13 6H3Zm3 4h20M7 14v10m6-10v10m6-10v10m6-10v10M4 28h24" fill="none" stroke="currentColor" stroke-width="1.7" stroke-linecap="round" stroke-linejoin="round"/></symbol>
  <symbol id="menu" viewBox="0 0 32 32"><path d="M5 8h22M5 16h22M5 24h22" fill="none" stroke="currentColor" stroke-width="2" stroke-linecap="round"/></symbol>
  <symbol id="arrow-up-right" viewBox="0 0 32 32"><path d="M8 24 24 8M12 8h12v12" fill="none" stroke="currentColor" stroke-width="2" stroke-linecap="round" stroke-linejoin="round"/></symbol>
</svg>
