<svg xmlns="http://www.w3.org/2000/svg">
    <symbol id="home" viewBox="0 0 24 24">
        <path d="M15 21v-8a1 1 0 0 0-1-1h-4a1 1 0 0 0-1 1v8" fill="none" stroke="currentColor" stroke-width="2" stroke-linecap="round" stroke-linejoin="round"/>
        <path d="M3 10a2 2 0 0 1 .709-1.528l7-6a2 2 0 0 1 2.582 0l7 6A2 2 0 0 1 21 10v9a2 2 0 0 1-2 2H5a2 2 0 0 1-2-2z" fill="none" stroke="currentColor" stroke-width="2" stroke-linecap="round" stroke-linejoin="round"/>
    </symbol>
    <symbol id="notebook" viewBox="0 0 24 24">
        <path d="M2 6h4M2 10h4M2 14h4M2 18h4M16 2v20" fill="none" stroke="currentColor" stroke-width="2" stroke-linecap="round" stroke-linejoin="round"/>
        <rect width="16" height="20" x="4" y="2" rx="2" fill="none" stroke="currentColor" stroke-width="2" stroke-linecap="round" stroke-linejoin="round"/>
    </symbol>
    <symbol id="sun" viewBox="0 0 24 24">
        <circle cx="12" cy="12" r="4" fill="none" stroke="currentColor" stroke-width="2"/>
        <path d="M12 2v2M12 20v2M4.93 4.93l1.42 1.42M17.65 17.65l1.42 1.42M2 12h2M20 12h2M4.93 19.07l1.42-1.42M17.65 6.35l1.42-1.42" fill="none" stroke="currentColor" stroke-width="2" stroke-linecap="round"/>
    </symbol>
    <symbol id="moon" viewBox="0 0 24 24">
        <path d="M21 12.79A9 9 0 1 1 11.21 3 7 7 0 0 0 21 12.79Z" fill="none" stroke="currentColor" stroke-width="2" stroke-linecap="round" stroke-linejoin="round"/>
    </symbol>
    <symbol id="chevron-right" viewBox="0 0 24 24">
        <path d="m9 18 6-6-6-6" fill="none" stroke="currentColor" stroke-width="2" stroke-linecap="round" stroke-linejoin="round"/>
    </symbol>
    <symbol id="arrow-up-right" viewBox="0 0 24 24">
        <path d="M7 7h10v10M7 17 17 7" fill="none" stroke="currentColor" stroke-width="2" stroke-linecap="round" stroke-linejoin="round"/>
    </symbol>
</svg>
